,
.   http://www.scenetime.com/signup.php  ---&gt;  Hottest scene tracker on the net !!!
 
Scenetime lucky draw is started , join now and be the winner . offer is limited 

    Join Now   http://www.scenetime.com/signup.php

    seed back for speed


 



...................................NFO:.................................................General
Complete name                    : The Inbetweeners Movie 2011 DVDRIP XVID - SCR0N.avi
Format                           : AVI
Format/Info                      : Audio Video Interleave
File size                        : 783 MiB
Duration                         : 1h 32mn
Overall bit rate                 : 1 178 Kbps

Video
ID                               : 0
Format                           : MPEG-4 Visual
Format profile                   : Advanced Simple@L5
Format settings, BVOP            : 2
Format settings, QPel            : No
Format settings, GMC             : No warppoints
Format settings, Matrix          : Default (H.263)
Codec ID                         : XVID
Codec ID/Hint                    : XviD
Duration                         : 1h 32mn
Bit rate                         : 980 Kbps
Width                            : 720 pixels
Height                           : 384 pixels
Display aspect ratio             : 1.875
Frame rate                       : 25.000 fps
Color space                      : YUV
Chroma subsampling               : 4:2:0
Bit depth                        : 8 bits
Scan type                        : Progressive
Compression mode                 : Lossy
Bits/(Pixel*Frame)               : 0.142
Stream size                      : 651 MiB (83%)


Audio
ID                               : 1
Format                           : MPEG Audio
Format version                   : Version 1
Format profile                   : Layer 3
Mode                             : Joint stereo
Codec ID                         : 55
Codec ID/Hint                    : MP3
Duration                         : 1h 32mn
Bit rate mode                    : Constant
Bit rate                         : 192 Kbps
Channel(s)                       : 2 channels
Sampling rate                    : 48.0 KHz
Compression mode                 : Lossy
Stream size                      : 128 MiB (16%)
Alignment                        : Aligned on interleaves
Interleave, duration             : 160 ms (4.00 video frames)
Interleave, preload duration     : 216 ms